# xmcd
#
# Track frame offsets:
#	150
#	11645
#	25918
#	37822
#	50203
#	69918
#	88703
#	104446
#	118094
#	131306
#	144590
#	160036
#	174076
#	190000
#	204128
#	217103
#
# Disc length: 3086 seconds
#
# Revision: 1
# Processed by: cddbd v1.5.1PL0 Copyright (c) Steve Scherf et al.
# Submitted via: audiograbber 1.80
#
DISCID=d20c0c10
DTITLE=Marianne and Michael - So schön ist die Volksmusik
DYEAR=1900
DGENRE=
TTITLE0=So schön ist die Volksmusik
TTITLE1=Lieder so schön wie die Heimat
TTITLE2=Drei weiße Birken
TTITLE3=Wo der Wildbach rauscht
TTITLE4=Ich liebe die Heimat, meine Berge
TTITLE5=La Pastorella
TTITLE6=Ein Walzer in Kufstein
TTITLE7=Der bayrische Brauch
TTITLE8=Im Krug zum grünen Kranze
TTITLE9=Lustige Musikanten unterwegs
TTITLE10=So lang mei Herz no in d'Luft springt
TTITLE11=Laß dir doch ein kleines bisserl Zeit
TTITLE12=Die Fahrt ins Heu
TTITLE13=I möcht a Sonnenstrahl in deinem Herzerl sein
TTITLE14=Heimat, deine Lieder
TTITLE15=Feste feiern
EXTD=
EXTT0=
EXTT1=
EXTT2=
EXTT3=
EXTT4=
EXTT5=
EXTT6=
EXTT7=
EXTT8=
EXTT9=
EXTT10=
EXTT11=
EXTT12=
EXTT13=
EXTT14=
EXTT15=
PLAYORDER=
